<?xml version="1.0" encoding="utf-8"?>
<!-- Generator: Adobe Illustrator 21.0.0, SVG Export Plug-In . SVG Version: 6.00 Build 0)  -->
<svg version="1.1" id="Layer_1" pointer-events="none"
	 xmlns="http://www.w3.org/2000/svg" xmlns:xlink="http://www.w3.org/1999/xlink" x="0px" y="0px" viewBox="0 0 2100 2026.5"
	 style="enable-background:new 0 0 2100 2026.5;" xml:space="preserve">
<style type="text/css">
	.st0{fill:none;stroke:#000000;stroke-linecap:round;stroke-linejoin:round;}
</style>
<g>
	<path class="st0" d="M1728.7,132.5v81.9l54.6-6.8l61.4,68.3l-6.8,20.5l20.5,34.1l-6.8,75.1l13.7,13.7v27.3l20.5,20.5l6.8,61.4
		l34.1,34.1v13.7l20.5,20.5v27.3l27.3,27.3l20.5,47.8l20.5,13.7l-20.5,54.6l6.8,27.3l-13.7,13.7v27.3l-34.1,41l-61.4,54.6l-6.8-6.8
		l-27.3,13.7h-54.6L1715,1013l129.7,13.7l88.7,47.8l34.1,34.1l68.3,27.3l13.7,20.5l-109.2,75.1h-13.7l-95.6,109.2l-13.7,41
		l-27.3,13.7l-27.3,41h-13.7l-75.1,68.3h-13.7l-54.6,54.6l-54.6,13.7l-27.3,27.3h-13.7v13.7h-13.7v13.7l-68.3,54.6l-75.1,34.1
		l-27.3,47.8l-47.8,47.8v13.7l-20.5,20.5v27.3l-27.3,27.3l-47.8,81.9l-13.7-54.6l-34.1-47.8l27.3-109.2V1757l-20.5-6.8l13.7-54.6
		l-6.8-20.5l-47.8-20.5l-20.5,6.8l6.8,6.8l-27.3,13.7v13.7l-20.5,20.5L930,1688.8l-88.7,13.7l-41-27.3h-41l-13.7,13.7l-20.5-6.8
		v13.7l-13.7-13.7l-75.1,6.8v-13.7h-47.8l-20.5,6.8v13.7h-13.7l-6.8-27.3h-27.3v-13.7l-81.9-88.7l6.8-20.5l-13.7-61.4l-54.6-54.6
		l-27.3-61.4v-41l-20.5-34.1l-41-6.8l-54.6,47.8l-54.6-34.1l-27.3,13.7l-6.8-6.8l-13.7,13.7l-20.5-20.5l13.7-27.3l-6.8-6.8
		l13.7-13.7l-41-47.8l6.8-20.5l-41-47.8l6.8-34.1l-13.7-13.7l27.3-81.9L70,985.7h13.7l-6.8-27.3l27.3-54.6l-13.7-41L158.7,740
		l-34.1-41l6.8-157l20.5-75.1l54.6-95.6l27.3-13.7l75.1,27.3l136.5,6.8l27.3-13.7l61.4,6.8l6.8-20.5l95.6,6.8l47.8-20.5h41
		l13.7,13.7l88.7-6.8l27.3,20.5h54.6L895.9,426l6.8,27.3l6.8-34.1l34.1-20.5v-61.4l20.5,20.5h13.7l27.3-20.5l6.8-34.1l81.9-13.7
		l27.3,47.8l54.6,13.7v-20.5l81.9-68.3l27.3-13.7l6.8,6.8l20.5-20.5l6.8,6.8l34.1-20.5l54.6-13.7l41-54.6v-13.7l-27.3-13.7V98.3
		l34.1-20.5l6.8-34.1h27.3l47.8,27.3h54.6l27.3,20.5l47.8,6.8l13.7,13.7h41l6.8,13.7V132.5z M1012,883.3l-47.8-102.4l13.7-41v-27.3
		L964.2,699l20.5-27.3l-20.5-13.7l6.8-20.5l-20.5-6.8l-20.5,6.8l-41,41l6.8,27.3L875.4,740l13.7,13.7L875.4,815l-13.7,20.5
		l-6.8,47.8L834.5,897l13.7,13.7h34.1v13.7l13.7,6.8l27.3-6.8l61.4,34.1v-13.7l27.3-20.5V883.3z"/>
</g>
</svg>
